<?xml version="1.0" encoding="UTF-8"?>
<svg version="1.1" xmlns="http://www.w3.org/2000/svg" width="193" height="52">
<path d="M0 0 C63.69 0 127.38 0 193 0 C193 17.16 193 34.32 193 52 C129.31 52 65.62 52 0 52 C0 34.84 0 17.68 0 0 Z " fill="#FDF5E0" transform="translate(0,0)"/>
<path d="M0 0 C2.02075566 -0.02734857 4.04162221 -0.0465517 6.0625 -0.0625 C7.18785156 -0.07410156 8.31320313 -0.08570313 9.47265625 -0.09765625 C13 0 13 0 16.24609375 0.49609375 C21.18070462 1.15849209 26.02754158 1.14505024 31 1.125 C32.43859375 1.13080078 32.43859375 1.13080078 33.90625 1.13671875 C37.8433027 1.13131071 41.60178048 1.05726903 45.50390625 0.49609375 C50.325497 -0.18808728 55.07520474 -0.10570563 59.9375 -0.0625 C60.90751953 -0.05798828 61.87753906 -0.05347656 62.87695312 -0.04882812 C65.2513676 -0.0371315 67.62565021 -0.02074086 70 0 C70 0.66 70 1.32 70 2 C63.56986533 3.73955334 57.65050424 4.24991456 51 4 C51 4.66 51 5.32 51 6 C52.65 6.33 54.3 6.66 56 7 C56 7.33 56 7.66 56 8 C54.22926253 8.02781263 52.45838583 8.04674879 50.6875 8.0625 C49.70136719 8.07410156 48.71523437 8.08570313 47.69921875 8.09765625 C44.80181519 8.02116724 42.11825006 7.76973027 39.25390625 7.41796875 C31.71326365 6.69788524 24.27070918 7.40497254 16.74658203 8.04150391 C14.24219688 8.25065166 11.73678104 8.436655 9.23046875 8.62109375 C7.61707503 8.75121712 6.00378873 8.88268081 4.390625 9.015625 C3.65193176 9.06889954 2.91323853 9.12217407 2.15216064 9.17706299 C-2.77497519 9.61796905 -6.54205522 10.84491216 -11 13 C-10.67 14.65 -10.34 16.3 -10 18 C0.13537602 18.04627451 10.27072704 18.08184427 20.40618706 18.10362434 C25.11213783 18.11407597 29.81801651 18.12826022 34.52392578 18.15087891 C39.06264076 18.17255826 43.60128624 18.18455823 48.14004898 18.18975449 C49.87446309 18.19345909 51.60887326 18.20069294 53.3432579 18.21146011 C55.76652086 18.22590995 58.18949409 18.2279807 60.61279297 18.22705078 C61.33496002 18.23424133 62.05712708 18.24143188 62.80117798 18.24884033 C66.84967751 18.34982709 66.84967751 18.34982709 70 16 C70.99 16 71.98 16 73 16 C72.01808958 18.64233197 71.39185397 19.78527559 68.8828125 21.16015625 C46.23835706 28.56931943 21.14745133 29.49688931 -2 24 C-3.52753906 23.64035156 -3.52753906 23.64035156 -5.0859375 23.2734375 C-9.89372633 21.99042054 -13.34176147 20.53629725 -17 17 C-16.62843526 14.30615566 -16.24505825 13.2197074 -14.1875 11.375 C-12.1682137 10.10573433 -10.13068387 9.06534194 -8 8 C-7.48824219 7.48695312 -6.97648437 6.97390625 -6.44921875 6.4453125 C-2.69121882 4.22767299 0.91553855 4.72063219 5.1875 4.875 C8.1277476 4.95243487 11.05803244 4.99409836 14 5 C14.33 4.67 14.66 4.34 15 4 C10.05 3.01 5.1 2.02 0 1 C0 0.67 0 0.34 0 0 Z " fill="#224859" transform="translate(68,8)"/>
<path d="M0 0 C4.52490572 0.55092984 9.80009367 1.07704658 14.18603516 -0.34008789 C17.23666822 -0.89889544 19.36795584 0.02386615 22.27587891 1.02709961 C23.30712891 1.37256836 24.33837891 1.71803711 25.40087891 2.07397461 C28.11218884 3.20859888 30.11085489 4.29943344 32.27587891 6.27709961 C32.27587891 6.93709961 32.27587891 7.59709961 32.27587891 8.27709961 C28.17246777 8.50266463 24.06822903 8.70459999 19.96337891 8.90209961 C18.79613281 8.96655273 17.62888672 9.03100586 16.42626953 9.09741211 C14.74887695 9.17475586 14.74887695 9.17475586 13.03759766 9.25366211 C11.49011841 9.33221436 11.49011841 9.33221436 9.91137695 9.41235352 C7.27587891 9.27709961 7.27587891 9.27709961 4.27587891 7.27709961 C-0.22059459 6.26926934 -4.62522028 6.08318377 -9.22412109 6.02709961 C-10.49255859 6.00131836 -11.76099609 5.97553711 -13.06787109 5.94897461 C-16.73872824 6.04946803 -16.73872824 6.04946803 -19.72802734 7.80834961 C-23.53905107 9.67659592 -25.95932011 9.41643666 -30.16162109 9.02709961 C-31.56655351 8.90842639 -32.97150188 8.78994184 -34.37646484 8.67163086 C-35.44743408 8.57229248 -35.44743408 8.57229248 -36.54003906 8.47094727 C-40.09720292 8.15523207 -43.6603045 7.93994532 -47.22412109 7.71459961 C-49.39081081 7.56910908 -51.55748657 7.4234097 -53.72412109 7.27709961 C-51.2403775 3.55148422 -49.99717417 3.37003462 -45.72412109 2.27709961 C-42.94545429 1.90810545 -40.22048479 1.60950561 -37.43115234 1.39038086 C-36.64447678 1.32425095 -35.85780121 1.25812103 -35.04728699 1.18998718 C-33.38770689 1.05274922 -31.72780616 0.91934045 -30.06762695 0.78955078 C-27.56064213 0.59149729 -25.05564847 0.37554814 -22.55029297 0.15795898 C-14.94633568 -0.47200223 -7.60318646 -0.99567388 0 0 Z " fill="#98C8CA" transform="translate(109.72412109375,14.722900390625)"/>
<path d="M0 0 C3.125 1.0625 3.125 1.0625 4.125 2.0625 C5.97869611 2.14987645 7.83567541 2.16948153 9.69140625 2.16015625 C10.81611328 2.15693359 11.94082031 2.15371094 13.09960938 2.15039062 C14.28361328 2.14201172 15.46761719 2.13363281 16.6875 2.125 C17.87537109 2.12048828 19.06324219 2.11597656 20.28710938 2.11132812 C23.23312226 2.09949675 26.17903681 2.08301287 29.125 2.0625 C28.795 2.7225 28.465 3.3825 28.125 4.0625 C26.80196283 4.4346042 25.46762065 4.76880173 24.125 5.0625 C23.795 5.3925 23.465 5.7225 23.125 6.0625 C20.70182009 6.16811031 18.30699786 6.20928383 15.88305664 6.20776367 C15.1253447 6.21112228 14.36763275 6.2144809 13.58695984 6.21794128 C11.06967553 6.22747922 8.55245753 6.22939581 6.03515625 6.23046875 C4.29259717 6.23367936 2.55003836 6.23704328 0.80747986 6.24055481 C-2.85027695 6.2465532 -6.5080101 6.24839398 -10.16577148 6.24780273 C-14.86148929 6.24770107 -19.55705602 6.26135437 -24.252738 6.27857494 C-27.85316164 6.28967295 -31.45354851 6.29172262 -35.0539875 6.29119301 C-36.78560469 6.29237641 -38.51722273 6.29681822 -40.24882317 6.30452538 C-42.66721159 6.31428111 -45.08526879 6.3114649 -47.50366211 6.30541992 C-48.22425812 6.31103943 -48.94485413 6.31665894 -49.68728638 6.32244873 C-54.6466843 6.2908157 -54.6466843 6.2908157 -56.875 4.0625 C-56.875 3.0725 -56.875 2.0825 -56.875 1.0625 C-43.49638167 0.88950063 -43.49638167 0.88950063 -37.52734375 1.390625 C-36.82222656 1.44871338 -36.11710937 1.50680176 -35.390625 1.56665039 C-33.40359513 1.74196282 -31.41850212 1.93882758 -29.43359375 2.13671875 C-19.12587405 1.92173887 -11.29201581 -2.70026465 0 0 Z " fill="#F8AA49" transform="translate(112.875,20.9375)"/>
<path d="M0 0 C24.75 0 49.5 0 75 0 C72.38866564 2.61133436 70.34141291 2.77944079 66.75 3.5625 C65.63109375 3.81128906 64.5121875 4.06007813 63.359375 4.31640625 C55.46858208 5.92209086 47.87388938 6.21954795 39.8449707 6.24023438 C37.60003135 6.24983942 35.35604928 6.28085984 33.11132812 6.3125 C21.75311078 6.39578034 10.56607126 5.56817351 0 1 C0 0.67 0 0.34 0 0 Z " fill="#5CAAB0" transform="translate(59,27)"/>
<path d="M0 0 C0 0.33 0 0.66 0 1 C-5.94 1.33 -11.88 1.66 -18 2 C-18 2.66 -18 3.32 -18 4 C-17.01 4.33 -16.02 4.66 -15 5 C-15.95712891 5.30744141 -15.95712891 5.30744141 -16.93359375 5.62109375 C-17.75988281 5.89050781 -18.58617187 6.15992188 -19.4375 6.4375 C-20.26121094 6.70433594 -21.08492187 6.97117187 -21.93359375 7.24609375 C-23.96219588 7.82155494 -23.96219588 7.82155494 -25 9 C-27.38979035 8.93311019 -29.74284454 8.80355127 -32.125 8.625 C-32.83333984 8.57609619 -33.54167969 8.52719238 -34.27148438 8.47680664 C-35.75958603 8.37383238 -37.24754109 8.26872029 -38.73535156 8.16162109 C-41.6521385 7.95345885 -44.56988036 7.76144222 -47.48779297 7.56982422 C-50.32542037 7.38321975 -53.16270612 7.19159887 -56 7 C-53.51625641 3.27438461 -52.27305307 3.09293501 -48 2 C-45.2213332 1.63100584 -42.4963637 1.332406 -39.70703125 1.11328125 C-38.92035568 1.04715134 -38.13368011 0.98102142 -37.32316589 0.91288757 C-35.66358579 0.77564961 -34.00368507 0.64224085 -32.34350586 0.51245117 C-29.83652104 0.31439768 -27.33152737 0.09844853 -24.82617188 -0.11914062 C-16.43313276 -0.81399396 -8.3779083 -1.27186659 0 0 Z " fill="#7DBCC8" transform="translate(112,15)"/>
<path d="M0 0 C0 0.66 0 1.32 0 2 C1.98 2 3.96 2 6 2 C6 2.33 6 2.66 6 3 C5.10796875 3.12117188 4.2159375 3.24234375 3.296875 3.3671875 C2.12640625 3.53476562 0.9559375 3.70234375 -0.25 3.875 C-1.41015625 4.03742187 -2.5703125 4.19984375 -3.765625 4.3671875 C-6.58193313 4.91820431 -8.55217557 5.55796482 -11 7 C-11.2113453 9.3912295 -11.2113453 9.3912295 -10 12 C-0.06715027 18.94357979 13.95749925 18.35052148 25.55273438 18.31567383 C27.73358722 18.31252371 29.91306443 18.33603414 32.09375 18.36132812 C44.85807168 18.41882669 57.7371754 17.49778343 69 11 C70.3234187 10.62925504 71.65579796 10.28637348 73 10 C72.01808958 12.64233197 71.39185397 13.78527559 68.8828125 15.16015625 C46.23835706 22.56931943 21.14745133 23.49688931 -2 18 C-3.52753906 17.64035156 -3.52753906 17.64035156 -5.0859375 17.2734375 C-9.89372633 15.99042054 -13.34176147 14.53629725 -17 11 C-16.62843526 8.30615566 -16.24505825 7.2197074 -14.1875 5.375 C-12.16991243 4.1068021 -10.16036789 3.00302795 -8 2 C-8 1.67 -8 1.34 -8 1 C-2.25 0 -2.25 0 0 0 Z " fill="#3C5E6B" transform="translate(68,14)"/>
<path d="M0 0 C1.31677734 0.00966797 1.31677734 0.00966797 2.66015625 0.01953125 C4.9375 0.1875 4.9375 0.1875 6.9375 1.1875 C6.9375 2.5075 6.9375 3.8275 6.9375 5.1875 C9.4125 5.6825 9.4125 5.6825 11.9375 6.1875 C10.00604852 8.80064024 8.78133105 9.22798825 5.5625 10.0625 C1.56506904 10.20034245 0.07201886 9.5621355 -3.0625 7.1875 C-3.0625 8.1775 -3.0625 9.1675 -3.0625 10.1875 C-7.0225 10.1875 -10.9825 10.1875 -15.0625 10.1875 C-14.4025 8.5375 -13.7425 6.8875 -13.0625 5.1875 C-13.0625 4.1975 -13.0625 3.2075 -13.0625 2.1875 C-11.9178125 2.249375 -11.9178125 2.249375 -10.75 2.3125 C-6.66892218 2.12268243 -4.36106371 -0.07065052 0 0 Z " fill="#EAE8D7" transform="translate(92.0625,35.8125)"/>
<path d="M0 0 C2.41696872 -0.05411124 4.83271787 -0.09372278 7.25 -0.125 C7.93191406 -0.14175781 8.61382812 -0.15851562 9.31640625 -0.17578125 C13.0608235 -0.21213482 15.82352727 -0.07944349 19 2 C18.67 2.99 18.34 3.98 18 5 C19.32 5.99 20.64 6.98 22 8 C21.01 8.33 20.02 8.66 19 9 C18.67 9.66 18.34 10.32 18 11 C16.68 11 15.36 11 14 11 C14 10.01 14 9.02 14 8 C12.35 8 10.7 8 9 8 C9 8.99 9 9.98 9 11 C7.35 11 5.7 11 4 11 C4 9.68 4 8.36 4 7 C2.35 7 0.7 7 -1 7 C-0.67 4.69 -0.34 2.38 0 0 Z " fill="#2F505F" transform="translate(53,35)"/>
<path d="M0 0 C6.93 0 13.86 0 21 0 C21.33 1.32 21.66 2.64 22 4 C20.68 4 19.36 4 18 4 C18 3.01 18 2.02 18 1 C16.68 1.33 15.36 1.66 14 2 C13.67 3.32 13.34 4.64 13 6 C13.99 6.66 14.98 7.32 16 8 C16.66 7.34 17.32 6.68 18 6 C20.125 6.375 20.125 6.375 22 7 C16.64150943 11.01886792 16.64150943 11.01886792 13.875 10.9375 C11.69703648 9.84851824 9.87940857 8.54379989 8 7 C7.67 7.99 7.34 8.98 7 10 C5.35 10 3.7 10 2 10 C2 8.35 2 6.7 2 5 C1.34 5 0.68 5 0 5 C0 3.35 0 1.7 0 0 Z " fill="#9FAAA5" transform="translate(118,36)"/>
<path d="M0 0 C1.56041016 0.13148437 1.56041016 0.13148437 3.15234375 0.265625 C5.86933873 0.71784967 7.70729745 1.3652544 10.0625 2.75 C9.0725 3.245 9.0725 3.245 8.0625 3.75 C7.7325 4.41 7.4025 5.07 7.0625 5.75 C5.4125 5.42 3.7625 5.09 2.0625 4.75 C2.0625 5.74 2.0625 6.73 2.0625 7.75 C2.7225 8.08 3.3825 8.41 4.0625 8.75 C3.0725 8.75 2.0825 8.75 1.0625 8.75 C0.4025 10.07 -0.2575 11.39 -0.9375 12.75 C-0.9375 11.43 -0.9375 10.11 -0.9375 8.75 C-1.72125 8.62625 -2.505 8.5025 -3.3125 8.375 C-5.9375 7.75 -5.9375 7.75 -7.9375 5.75 C-7.2775 5.09 -6.6175 4.43 -5.9375 3.75 C-6.9275 3.09 -7.9175 2.43 -8.9375 1.75 C-5.36304274 -0.63297151 -4.17699993 -0.39240049 0 0 Z " fill="#EEECD9" transform="translate(76.9375,33.25)"/>
<path d="M0 0 C-0.33 0.66 -0.66 1.32 -1 2 C-2.32303717 2.3721042 -3.65737935 2.70630173 -5 3 C-5.33 3.33 -5.66 3.66 -6 4 C-8.44830426 4.08843793 -10.86820599 4.11528752 -13.31640625 4.09765625 C-14.04746078 4.0962413 -14.77851532 4.09482635 -15.53172302 4.09336853 C-17.87535632 4.08775408 -20.21889539 4.07519922 -22.5625 4.0625 C-24.14778508 4.05748686 -25.73307166 4.05292363 -27.31835938 4.04882812 C-31.2122761 4.03777997 -35.10612205 4.02050572 -39 4 C-39 3.67 -39 3.34 -39 3 C-25.8654647 0.50384397 -13.36164224 -0.3801521 0 0 Z " fill="#BB7E39" transform="translate(142,23)"/>
<path d="M0 0 C0 0.33 0 0.66 0 1 C-6.401594 1.82038591 -12.61302501 2.12754513 -19.0625 2.0625 C-19.92810547 2.05798828 -20.79371094 2.05347656 -21.68554688 2.04882812 C-23.79039539 2.03719913 -25.89520758 2.01927073 -28 2 C-22.03830811 -6.94253783 -8.43416785 -3.01476638 0 0 Z " fill="#98C9CC" transform="translate(84,20)"/>
<path d="M0 0 C12.25713519 -0.50836045 23.91909071 1.03102649 36 3 C36 3.33 36 3.66 36 4 C23.94723146 4.11114233 12.02039864 3.94014291 0 3 C0 2.01 0 1.02 0 0 Z " fill="#EEC582" transform="translate(56,22)"/>
<path d="M0 0 C2.91722548 -0.08103404 5.83219516 -0.14051081 8.75 -0.1875 C9.575 -0.21263672 10.4 -0.23777344 11.25 -0.26367188 C17.42297754 -0.33834499 17.42297754 -0.33834499 20.578125 1.51171875 C21.28195313 2.24841797 21.28195313 2.24841797 22 3 C21.01 3.33 20.02 3.66 19 4 C18.67 4.66 18.34 5.32 18 6 C16.68 6 15.36 6 14 6 C14 5.01 14 4.02 14 3 C12.35 3 10.7 3 9 3 C9 3.99 9 4.98 9 6 C7.35 6 5.7 6 4 6 C4 4.68 4 3.36 4 2 C2.35 2 0.7 2 -1 2 C-0.67 1.34 -0.34 0.68 0 0 Z " fill="#D7D8C9" transform="translate(53,40)"/>
<path d="M0 0 C-9.99952769 6.66635179 -25.41885294 5.38584149 -37 5.1875 C-38.56509099 5.17239483 -40.13019642 5.15871694 -41.6953125 5.14648438 C-45.46391053 5.11401139 -49.2317865 5.06256826 -53 5 C-53 4.67 -53 4.34 -53 4 C-51.5162085 3.970271 -51.5162085 3.970271 -50.00244141 3.93994141 C-46.33827923 3.86396544 -42.67451836 3.77523648 -39.01074219 3.68261719 C-37.42390862 3.64429415 -35.83698719 3.60944712 -34.25 3.578125 C-31.97103434 3.53254569 -29.69267532 3.47454162 -27.4140625 3.4140625 C-26.70255035 3.40251129 -25.99103821 3.39096008 -25.25796509 3.37905884 C-21.17896343 3.36591761 -21.17896343 3.36591761 -18 1 C-12.14315754 -0.31252706 -5.96467548 -0.09467739 0 0 Z " fill="#369BB4" transform="translate(132,28)"/>
<path d="M0 0 C2.875 0.25 2.875 0.25 6 1 C6.66 2.32 7.32 3.64 8 5 C-4.375 5.495 -4.375 5.495 -17 6 C-17.33 5.01 -17.66 4.02 -18 3 C-12.06 3 -6.12 3 0 3 C0 2.01 0 1.02 0 0 Z " fill="#85C4D0" transform="translate(134,18)"/>
<path d="M0 0 C0.99 0 1.98 0 3 0 C1.98702259 2.84825414 1.35325266 3.823949 -1.3984375 5.1953125 C-16.75386439 9.99136447 -31.02102956 10.25197309 -47 10 C-47 9.67 -47 9.34 -47 9 C-46.41734375 8.98541748 -45.8346875 8.97083496 -45.234375 8.95581055 C-21.11797429 9.39294823 -21.11797429 9.39294823 0 0 Z " fill="#1B576C" transform="translate(138,24)"/>
<path d="M0 0 C4.13830989 0.30096799 6.51847024 0.67898016 10 3 C9.34 3 8.68 3 8 3 C8 3.99 8 4.98 8 6 C1.73 6 -4.54 6 -11 6 C-11 5.67 -11 5.34 -11 5 C-10.37351562 4.80664062 -9.74703125 4.61328125 -9.1015625 4.4140625 C-8.28429687 4.15367188 -7.46703125 3.89328125 -6.625 3.625 C-5.81289062 3.36976562 -5.00078125 3.11453125 -4.1640625 2.8515625 C-1.83540815 2.10145717 -1.83540815 2.10145717 0 0 Z " fill="#A1CECF" transform="translate(126,15)"/>
<path d="M0 0 C6.93 0 13.86 0 21 0 C21.33 1.32 21.66 2.64 22 4 C20.68 4 19.36 4 18 4 C18 3.01 18 2.02 18 1 C16.02463255 1.34786708 16.02463255 1.34786708 14 2 C13.67 2.66 13.34 3.32 13 4 C11.68 4 10.36 4 9 4 C9 3.34 9 2.68 9 2 C7.35 2 5.7 2 4 2 C4 2.66 4 3.32 4 4 C2.68 4 1.36 4 0 4 C0 2.68 0 1.36 0 0 Z " fill="#385764" transform="translate(118,36)"/>
<path d="M0 0 C1.79158489 -0.02696365 3.58328473 -0.04637917 5.375 -0.0625 C6.37273437 -0.07410156 7.37046875 -0.08570313 8.3984375 -0.09765625 C11 0 11 0 13 1 C13 2.32 13 3.64 13 5 C9.04 5 5.08 5 1 5 C0.67 3.35 0.34 1.7 0 0 Z " fill="#849394" transform="translate(102,36)"/>
<path d="M0 0 C0.886875 -0.00257812 1.77375 -0.00515625 2.6875 -0.0078125 C5 0.125 5 0.125 7 1.125 C6.34 2.445 5.68 3.765 5 5.125 C-3.57142857 5.26785714 -3.57142857 5.26785714 -7 4.125 C-7 3.135 -7 2.145 -7 1.125 C-4.51245214 -0.11877393 -2.77344699 -0.00806235 0 0 Z " fill="#5E757C" transform="translate(92,35.875)"/>
<path d="M0 0 C9.57 0.33 19.14 0.66 29 1 C29 1.33 29 1.66 29 2 C20.42832093 3.38289756 12.63793734 4.50401732 4 3 C4 2.34 4 1.68 4 1 C2.68 0.67 1.36 0.34 0 0 Z " fill="#0B364B" transform="translate(64,13)"/>
<path d="M0 0 C1.19109375 -0.00386719 1.19109375 -0.00386719 2.40625 -0.0078125 C4.5 0.125 4.5 0.125 6.5 1.125 C6.17 2.115 5.84 3.105 5.5 4.125 C1.87 4.125 -1.76 4.125 -5.5 4.125 C-5.83 3.135 -6.16 2.145 -6.5 1.125 C-4.13386544 -0.05806728 -2.63219264 -0.00854608 0 0 Z " fill="#738589" transform="translate(111.5,41.875)"/>
<path d="M0 0 C8.25 0 16.5 0 25 0 C25 0.33 25 0.66 25 1 C21.7 1 18.4 1 15 1 C15 1.66 15 2.32 15 3 C13.06183265 2.8858134 11.12444901 2.75826577 9.1875 2.625 C8.10855469 2.55539063 7.02960938 2.48578125 5.91796875 2.4140625 C3 2 3 2 0 0 Z " fill="#389AB2" transform="translate(64,29)"/>
<path d="M0 0 C0 0.66 0 1.32 0 2 C1.65 2.33 3.3 2.66 5 3 C5 3.33 5 3.66 5 4 C3.10424749 4.02721176 1.20838021 4.04649136 -0.6875 4.0625 C-2.27111328 4.07990234 -2.27111328 4.07990234 -3.88671875 4.09765625 C-6.72410262 4.00865425 -9.2438919 3.64939838 -12 3 C-12 2.34 -12 1.68 -12 1 C-7.915021 0.45533613 -4.1274515 0 0 0 Z " fill="#295162" transform="translate(119,12)"/>
<path d="M0 0 C0 0.99 0 1.98 0 3 C-4.78585167 3.95717033 -9.1414266 4.31859498 -14 4 C-15.73828125 2.484375 -15.73828125 2.484375 -17 1 C-11.29014022 0.25983299 -5.75813575 -0.10469338 0 0 Z " fill="#083348" transform="translate(113,10)"/>
<path d="M0 0 C1.32 0 2.64 0 4 0 C4 0.99 4 1.98 4 3 C5.32 3.33 6.64 3.66 8 4 C6.68 4 5.36 4 4 4 C3.34 5.32 2.68 6.64 2 8 C-1.465 6.02 -1.465 6.02 -5 4 C-4.0409375 3.8453125 -4.0409375 3.8453125 -3.0625 3.6875 C-2.381875 3.460625 -1.70125 3.23375 -1 3 C-0.67 2.01 -0.34 1.02 0 0 Z " fill="#E1E0D0" transform="translate(132,37)"/>
<path d="M0 0 C2.97 0 5.94 0 9 0 C9.33 1.32 9.66 2.64 10 4 C6.37 4 2.74 4 -1 4 C-0.67 2.68 -0.34 1.36 0 0 Z " fill="#516B74" transform="translate(78,42)"/>
<path d="M0 0 C0.33 0.99 0.66 1.98 1 3 C-0.32 3 -1.64 3 -3 3 C-3.33 4.32 -3.66 5.64 -4 7 C-4.53625 6.360625 -5.0725 5.72125 -5.625 5.0625 C-8.44367193 2.61470596 -10.33860732 2.33285388 -14 2 C-14 1.67 -14 1.34 -14 1 C-9.27616037 0.34843591 -4.78025483 -0.11950637 0 0 Z " fill="#E9E6D4" transform="translate(121,33)"/>
<path d="M0 0 C1.43836751 0.11458693 2.87570966 0.24209116 4.3125 0.375 C5.51326172 0.47941406 5.51326172 0.47941406 6.73828125 0.5859375 C9 1 9 1 12 3 C8.84493858 3.93619813 6.03413498 4.1057123 2.75 4.0625 C1.85796875 4.05347656 0.9659375 4.04445313 0.046875 4.03515625 C-0.62859375 4.02355469 -1.3040625 4.01195312 -2 4 C-1.34 2.68 -0.68 1.36 0 0 Z " fill="#E4E3D3" transform="translate(74,10)"/>
<path d="M0 0 C4.95 0 9.9 0 15 0 C15 0.33 15 0.66 15 1 C13.35 1 11.7 1 10 1 C10 2.32 10 3.64 10 5 C8.35 5 6.7 5 5 5 C5 3.68 5 2.36 5 1 C3.35 1 1.7 1 0 1 C0 0.67 0 0.34 0 0 Z " fill="#46616C" transform="translate(52,41)"/>
<path d="M0 0 C0.928125 0.165 1.85625 0.33 2.8125 0.5 C6.86788886 1.13613943 10.02195323 0.86011822 14 0 C10.92000054 3.67230705 8.7517398 4.56802365 4 5 C2.68 3.35 1.36 1.7 0 0 Z " fill="#385563" transform="translate(126,42)"/>
<path d="M0 0 C0.90105469 0.02707031 1.80210937 0.05414062 2.73046875 0.08203125 C3.76107422 0.13423828 3.76107422 0.13423828 4.8125 0.1875 C4.8125 0.8475 4.8125 1.5075 4.8125 2.1875 C3.39872218 2.55302803 1.98129424 2.90445495 0.5625 3.25 C-0.22640625 3.44722656 -1.0153125 3.64445313 -1.828125 3.84765625 C-4.29144822 4.20247267 -5.84354132 3.95627544 -8.1875 3.1875 C-5.67753317 0.01043235 -3.96125134 -0.15433447 0 0 Z " fill="#3B5A67" transform="translate(133.1875,7.8125)"/>
<path d="M0 0 C0.59167969 0.08378906 1.18335937 0.16757812 1.79296875 0.25390625 C6.09939457 0.80889424 9.75552644 1.23226652 14 0 C12.0564631 2.6294911 10.79520311 3.0558537 7.5625 3.9375 C4 4 4 4 1.5625 2.0625 C1.046875 1.381875 0.53125 0.70125 0 0 Z " fill="#3C5866" transform="translate(90,42)"/>
<path d="M0 0 C0.495 0.268125 0.99 0.53625 1.5 0.8125 C4.9236946 2.43875493 8.44132285 3.69515171 12 5 C12 5.33 12 5.66 12 6 C2.40546697 5.40546697 2.40546697 5.40546697 -1 2 C-0.67 1.34 -0.34 0.68 0 0 Z " fill="#274B5A" transform="translate(55,25)"/>
<path d="M0 0 C2.25 -0.25 2.25 -0.25 5 0 C7.3125 2 7.3125 2 9 4 C2.25 4.125 2.25 4.125 0 3 C0 2.01 0 1.02 0 0 Z " fill="#FEF9E3" transform="translate(79,38)"/>
<path d="M0 0 C-1.03491649 2.82249951 -1.69915265 3.83374226 -4.375 5.3125 C-7.16653942 6.04361747 -8.30861211 5.79596365 -11 5 C-9.73461631 4.15841464 -8.46246221 3.32700252 -7.1875 2.5 C-6.47980469 2.0359375 -5.77210938 1.571875 -5.04296875 1.09375 C-3 0 -3 0 0 0 Z " fill="#183E51" transform="translate(141,24)"/>
<path d="M0 0 C3.375 -0.125 3.375 -0.125 7 0 C7.66 0.66 8.32 1.32 9 2 C8 3 8 3 6.15234375 3.09765625 C4.1015625 3.06510417 2.05078125 3.03255208 0 3 C0 2.01 0 1.02 0 0 Z " fill="#F1EEDB" transform="translate(58,36)"/>
<path d="M0 0 C2.97 0 5.94 0 9 0 C6 2 6 2 4 2 C4 2.66 4 3.32 4 4 C2.68 4 1.36 4 0 4 C0 2.68 0 1.36 0 0 Z " fill="#3B5865" transform="translate(74,36)"/>
<path d="M0 0 C3.3 0.33 6.6 0.66 10 1 C10 1.33 10 1.66 10 2 C4.06 2.495 4.06 2.495 -2 3 C-1.34 2.01 -0.68 1.02 0 0 Z " fill="#8CC8D1" transform="translate(68,17)"/>
<path d="M0 0 C2.97 0 5.94 0 9 0 C9.33 1.32 9.66 2.64 10 4 C8.68 4 7.36 4 6 4 C6 3.01 6 2.02 6 1 C4.02 1 2.04 1 0 1 C0 0.67 0 0.34 0 0 Z " fill="#2F4F5E" transform="translate(104,36)"/>
<path d="M0 0 C1.32 0 2.64 0 4 0 C4.33 1.65 4.66 3.3 5 5 C3.35 5 1.7 5 0 5 C0 3.35 0 1.7 0 0 Z " fill="#093347" transform="translate(53,35)"/>
<path d="M0 0 C2.31 0 4.62 0 7 0 C5.25 2 5.25 2 3 4 C1.68 4 0.36 4 -1 4 C-0.67 2.68 -0.34 1.36 0 0 Z " fill="#3F5C68" transform="translate(68,42)"/>
<path d="M0 0 C0.33 0.99 0.66 1.98 1 3 C1.66 3.33 2.32 3.66 3 4 C2.01 4 1.02 4 0 4 C-0.66 5.32 -1.32 6.64 -2 8 C-2.66 6.02 -3.32 4.04 -4 2 C-2.68 2 -1.36 2 0 2 C0 1.34 0 0.68 0 0 Z " fill="#D3D5C8" transform="translate(78,38)"/>
<path d="M0 0 C2.31 0 4.62 0 7 0 C7.33 1.32 7.66 2.64 8 4 C6.68 4 5.36 4 4 4 C4 3.01 4 2.02 4 1 C2.68 0.67 1.36 0.34 0 0 Z " fill="#2B4C5B" transform="translate(132,36)"/>
<path d="M0 0 C2.31 0 4.62 0 7 0 C7.33 0.99 7.66 1.98 8 3 C6.35 3.33 4.7 3.66 3 4 C3 3.01 3 2.02 3 1 C2.01 0.67 1.02 0.34 0 0 Z " fill="#1D4456" transform="translate(110,9)"/>
<path d="M0 0 C1.32 0 2.64 0 4 0 C4 0.66 4 1.32 4 2 C6.31 2 8.62 2 11 2 C11 2.33 11 2.66 11 3 C7.7 3 4.4 3 1 3 C0.67 2.01 0.34 1.02 0 0 Z " fill="#385764" transform="translate(105,43)"/>
<path d="M0 0 C2.97 1.98 2.97 1.98 6 4 C5.01 4.495 5.01 4.495 4 5 C3.67 5.66 3.34 6.32 3 7 C2.67 6.34 2.34 5.68 2 5 C1.01 4.67 0.02 4.34 -1 4 C-0.67 2.68 -0.34 1.36 0 0 Z " fill="#EEECD9" transform="translate(101,38)"/>
</svg>
